<?xml version="1.0" encoding="UTF-8"?>
<svg version="1.1" xmlns="http://www.w3.org/2000/svg" width="64" height="64">
<path d="M0 0 C5.51756476 -0.0493521 11.03500171 -0.08569662 16.55273438 -0.10986328 C18.43068682 -0.11993534 20.30862353 -0.13359362 22.18652344 -0.15087891 C24.8822009 -0.17507453 27.57767146 -0.18647083 30.2734375 -0.1953125 C31.11619232 -0.20563507 31.95894714 -0.21595764 32.82723999 -0.22659302 C34.88621247 -0.22699144 36.94467935 -0.12257588 39 0 C39.66 0.66 40.32 1.32 41 2 C40.75 5.0625 40.75 5.0625 40 8 C36.80348463 9.59825768 33.32933447 9.20541665 29.81640625 9.23828125 C29.0050975 9.246353 28.19378876 9.25442474 27.3578949 9.26274109 C25.64055518 9.27657837 23.923188 9.28730212 22.20581055 9.29516602 C19.57613374 9.31241059 16.94770405 9.35630138 14.31835938 9.40039062 C12.65105092 9.41051482 10.98373178 9.41903178 9.31640625 9.42578125 C8.52883438 9.44328934 7.74126251 9.46079742 6.92982483 9.47883606 C3.58049697 9.46548791 1.51997023 9.41556187 -1.14477539 7.28588867 C-2 5 -2 5 -1.1875 2.25 C-0.795625 1.5075 -0.40375 0.765 0 0 Z " fill="#F44336" transform="translate(20,44)"/>
<path d="M0 0 C5.51756476 -0.0493521 11.03500171 -0.08569662 16.55273438 -0.10986328 C18.43068682 -0.11993534 20.30862353 -0.13359362 22.18652344 -0.15087891 C24.8822009 -0.17507453 27.57767146 -0.18647083 30.2734375 -0.1953125 C31.11619232 -0.20563507 31.95894714 -0.21595764 32.82723999 -0.22659302 C34.88621247 -0.22699144 36.94467935 -0.12257588 39 0 C39.66 0.66 40.32 1.32 41 2 C40.75 5.0625 40.75 5.0625 40 8 C36.80348463 9.59825768 33.32933447 9.20541665 29.81640625 9.23828125 C29.0050975 9.246353 28.19378876 9.25442474 27.3578949 9.26274109 C25.64055518 9.27657837 23.923188 9.28730212 22.20581055 9.29516602 C19.57613374 9.31241059 16.94770405 9.35630138 14.31835938 9.40039062 C12.65105092 9.41051482 10.98373178 9.41903178 9.31640625 9.42578125 C8.52883438 9.44328934 7.74126251 9.46079742 6.92982483 9.47883606 C3.58049697 9.46548791 1.51997023 9.41556187 -1.14477539 7.28588867 C-2 5 -2 5 -1.1875 2.25 C-0.795625 1.5075 -0.40375 0.765 0 0 Z " fill="#F9A724" transform="translate(20,28)"/>
<path d="M0 0 C5.51756476 -0.0493521 11.03500171 -0.08569662 16.55273438 -0.10986328 C18.43068682 -0.11993534 20.30862353 -0.13359362 22.18652344 -0.15087891 C24.8822009 -0.17507453 27.57767146 -0.18647083 30.2734375 -0.1953125 C31.11619232 -0.20563507 31.95894714 -0.21595764 32.82723999 -0.22659302 C34.88621247 -0.22699144 36.94467935 -0.12257588 39 0 C39.66 0.66 40.32 1.32 41 2 C40.75 5.0625 40.75 5.0625 40 8 C36.80348463 9.59825768 33.32933447 9.20541665 29.81640625 9.23828125 C29.0050975 9.246353 28.19378876 9.25442474 27.3578949 9.26274109 C25.64055518 9.27657837 23.923188 9.28730212 22.20581055 9.29516602 C19.57613374 9.31241059 16.94770405 9.35630138 14.31835938 9.40039062 C12.65105092 9.41051482 10.98373178 9.41903178 9.31640625 9.42578125 C8.52883438 9.44328934 7.74126251 9.46079742 6.92982483 9.47883606 C3.58049697 9.46548791 1.51997023 9.41556187 -1.14477539 7.28588867 C-2 5 -2 5 -1.1875 2.25 C-0.795625 1.5075 -0.40375 0.765 0 0 Z " fill="#8AC34A" transform="translate(20,12)"/>
<path d="M0 0 C3.625 0.375 3.625 0.375 7 1 C7.625 4.375 7.625 4.375 8 8 C6 10 6 10 3 10.25 C0 10 0 10 -2 8 C-2.25 5 -2.25 5 -2 2 C-1.34 1.34 -0.68 0.68 0 0 Z " fill="#F44335" transform="translate(6,43)"/>
<path d="M0 0 C3.625 0.375 3.625 0.375 7 1 C7.625 4.375 7.625 4.375 8 8 C6 10 6 10 3 10.25 C0 10 0 10 -2 8 C-2.25 5 -2.25 5 -2 2 C-1.34 1.34 -0.68 0.68 0 0 Z " fill="#F9A924" transform="translate(6,27)"/>
<path d="M0 0 C3.625 0.375 3.625 0.375 7 1 C7.625 4.375 7.625 4.375 8 8 C6 10 6 10 3 10.25 C0 10 0 10 -2 8 C-2.25 5 -2.25 5 -2 2 C-1.34 1.34 -0.68 0.68 0 0 Z " fill="#8CC348" transform="translate(6,11)"/>
</svg>
